<svg width="1409" height="792" viewBox="0 0 1409 792" fill="none" xmlns="http://www.w3.org/2000/svg">
<g clip-path="url(#clip0_1_2)">
<mask id="mask0_1_2" style="mask-type:luminance" maskUnits="userSpaceOnUse" x="862" y="-1" width="924" height="793">
<path d="M862.002 523.262L1593.04 791.609L1785.12 268.346L1054.08 -0.00100029L862.002 523.262Z" fill="white"/>
</mask>
<g mask="url(#mask0_1_2)">
<g opacity="0.6">
<path d="M1698 493.365C1648.38 553.026 1546.06 479.618 1401.04 516.048C1275.44 547.615 1269.9 624.023 1168.94 622.53C1095.18 621.453 1013.91 580.72 968.095 507.586C917.569 426.949 933.376 343.33 937.884 323.024C958.003 231.945 1022.73 182.674 1045.57 165.829C1139.7 96.4671 1247.3 105.808 1298.93 110.264C1492.83 127.062 1703.04 260.462 1715.67 410.389C1717.34 430.017 1720.39 466.423 1698 493.365Z" fill="url(#paint0_linear_1_2)"/>
</g>
</g>
<g opacity="0.3">
<mask id="mask1_1_2" style="mask-type:alpha" maskUnits="userSpaceOnUse" x="0" y="127" width="11" height="11">
<path d="M5.22838 137.425C8.11594 137.425 10.4568 135.091 10.4568 132.213C10.4568 129.334 8.11594 127 5.22838 127C2.34082 127 0 129.334 0 132.213C0 135.091 2.34082 137.425 5.22838 137.425Z" fill="url(#paint1_linear_1_2)"/>
</mask>
<g mask="url(#mask1_1_2)">
<path d="M5.22838 137.425C8.11594 137.425 10.4568 135.091 10.4568 132.213C10.4568 129.334 8.11594 127 5.22838 127C2.34082 127 0 129.334 0 132.213C0 135.091 2.34082 137.425 5.22838 137.425Z" fill="url(#paint2_linear_1_2)"/>
</g>
<mask id="mask2_1_2" style="mask-type:alpha" maskUnits="userSpaceOnUse" x="30" y="127" width="11" height="11">
<path d="M35.5095 137.425C38.397 137.425 40.7378 135.091 40.7378 132.213C40.7378 129.334 38.397 127 35.5095 127C32.6219 127 30.2811 129.334 30.2811 132.213C30.2811 135.091 32.6219 137.425 35.5095 137.425Z" fill="url(#paint3_linear_1_2)"/>
</mask>
<g mask="url(#mask2_1_2)">
<path d="M35.5095 137.425C38.397 137.425 40.7378 135.091 40.7378 132.213C40.7378 129.334 38.397 127 35.5095 127C32.6219 127 30.2811 129.334 30.2811 132.213C30.2811 135.091 32.6219 137.425 35.5095 137.425Z" fill="url(#paint4_linear_1_2)"/>
</g>
<mask id="mask3_1_2" style="mask-type:alpha" maskUnits="userSpaceOnUse" x="60" y="127" width="12" height="11">
<path d="M65.7905 137.425C68.6781 137.425 71.0189 135.091 71.0189 132.213C71.0189 129.334 68.6781 127 65.7905 127C62.903 127 60.5621 129.334 60.5621 132.213C60.5621 135.091 62.903 137.425 65.7905 137.425Z" fill="url(#paint5_linear_1_2)"/>
</mask>
<g mask="url(#mask3_1_2)">
<path d="M65.7905 137.425C68.6781 137.425 71.0189 135.091 71.0189 132.213C71.0189 129.334 68.6781 127 65.7905 127C62.903 127 60.5621 129.334 60.5621 132.213C60.5621 135.091 62.903 137.425 65.7905 137.425Z" fill="url(#paint6_linear_1_2)"/>
</g>
<mask id="mask4_1_2" style="mask-type:alpha" maskUnits="userSpaceOnUse" x="90" y="127" width="12" height="11">
<path d="M96.0716 137.425C98.9592 137.425 101.3 135.091 101.3 132.213C101.3 129.334 98.9592 127 96.0716 127C93.184 127 90.8432 129.334 90.8432 132.213C90.8432 135.091 93.184 137.425 96.0716 137.425Z" fill="url(#paint7_linear_1_2)"/>
</mask>
<g mask="url(#mask4_1_2)">
<path d="M96.0716 137.425C98.9592 137.425 101.3 135.091 101.3 132.213C101.3 129.334 98.9592 127 96.0716 127C93.184 127 90.8432 129.334 90.8432 132.213C90.8432 135.091 93.184 137.425 96.0716 137.425Z" fill="url(#paint8_linear_1_2)"/>
</g>
<mask id="mask5_1_2" style="mask-type:alpha" maskUnits="userSpaceOnUse" x="121" y="127" width="11" height="11">
<path d="M126.353 137.425C129.24 137.425 131.581 135.091 131.581 132.213C131.581 129.334 129.24 127 126.353 127C123.465 127 121.124 129.334 121.124 132.213C121.124 135.091 123.465 137.425 126.353 137.425Z" fill="url(#paint9_linear_1_2)"/>
</mask>
<g mask="url(#mask5_1_2)">
<path d="M126.353 137.425C129.24 137.425 131.581 135.091 131.581 132.213C131.581 129.334 129.24 127 126.353 127C123.465 127 121.124 129.334 121.124 132.213C121.124 135.091 123.465 137.425 126.353 137.425Z" fill="url(#paint10_linear_1_2)"/>
</g>
<mask id="mask6_1_2" style="mask-type:alpha" maskUnits="userSpaceOnUse" x="0" y="153" width="11" height="11">
<path d="M5.22838 163.596C8.11594 163.596 10.4568 161.262 10.4568 158.383C10.4568 155.505 8.11594 153.171 5.22838 153.171C2.34082 153.171 0 155.505 0 158.383C0 161.262 2.34082 163.596 5.22838 163.596Z" fill="url(#paint11_linear_1_2)"/>
</mask>
<g mask="url(#mask6_1_2)">
<path d="M5.22838 163.596C8.11594 163.596 10.4568 161.262 10.4568 158.383C10.4568 155.505 8.11594 153.171 5.22838 153.171C2.34082 153.171 0 155.505 0 158.383C0 161.262 2.34082 163.596 5.22838 163.596Z" fill="url(#paint12_linear_1_2)"/>
</g>
<mask id="mask7_1_2" style="mask-type:alpha" maskUnits="userSpaceOnUse" x="30" y="153" width="11" height="11">
<path d="M35.5095 163.596C38.397 163.596 40.7378 161.262 40.7378 158.383C40.7378 155.505 38.397 153.171 35.5095 153.171C32.6219 153.171 30.2811 155.505 30.2811 158.383C30.2811 161.262 32.6219 163.596 35.5095 163.596Z" fill="url(#paint13_linear_1_2)"/>
</mask>
<g mask="url(#mask7_1_2)">
<path d="M35.5095 163.596C38.397 163.596 40.7378 161.262 40.7378 158.383C40.7378 155.505 38.397 153.171 35.5095 153.171C32.6219 153.171 30.2811 155.505 30.2811 158.383C30.2811 161.262 32.6219 163.596 35.5095 163.596Z" fill="url(#paint14_linear_1_2)"/>
</g>
<mask id="mask8_1_2" style="mask-type:alpha" maskUnits="userSpaceOnUse" x="60" y="153" width="12" height="11">
<path d="M65.7905 163.596C68.6781 163.596 71.0189 161.262 71.0189 158.383C71.0189 155.505 68.6781 153.171 65.7905 153.171C62.903 153.171 60.5621 155.505 60.5621 158.383C60.5621 161.262 62.903 163.596 65.7905 163.596Z" fill="url(#paint15_linear_1_2)"/>
</mask>
<g mask="url(#mask8_1_2)">
<path d="M65.7905 163.596C68.6781 163.596 71.0189 161.262 71.0189 158.383C71.0189 155.505 68.6781 153.171 65.7905 153.171C62.903 153.171 60.5621 155.505 60.5621 158.383C60.5621 161.262 62.903 163.596 65.7905 163.596Z" fill="url(#paint16_linear_1_2)"/>
</g>
<mask id="mask9_1_2" style="mask-type:alpha" maskUnits="userSpaceOnUse" x="90" y="153" width="12" height="11">
<path d="M96.0716 163.596C98.9592 163.596 101.3 161.262 101.3 158.383C101.3 155.505 98.9592 153.171 96.0716 153.171C93.184 153.171 90.8432 155.505 90.8432 158.383C90.8432 161.262 93.184 163.596 96.0716 163.596Z" fill="url(#paint17_linear_1_2)"/>
</mask>
<g mask="url(#mask9_1_2)">
<path d="M96.0716 163.596C98.9592 163.596 101.3 161.262 101.3 158.383C101.3 155.505 98.9592 153.171 96.0716 153.171C93.184 153.171 90.8432 155.505 90.8432 158.383C90.8432 161.262 93.184 163.596 96.0716 163.596Z" fill="url(#paint18_linear_1_2)"/>
</g>
<mask id="mask10_1_2" style="mask-type:alpha" maskUnits="userSpaceOnUse" x="121" y="153" width="11" height="11">
<path d="M126.353 163.596C129.24 163.596 131.581 161.262 131.581 158.383C131.581 155.505 129.24 153.171 126.353 153.171C123.465 153.171 121.124 155.505 121.124 158.383C121.124 161.262 123.465 163.596 126.353 163.596Z" fill="url(#paint19_linear_1_2)"/>
</mask>
<g mask="url(#mask10_1_2)">
<path d="M126.353 163.596C129.24 163.596 131.581 161.262 131.581 158.383C131.581 155.505 129.24 153.171 126.353 153.171C123.465 153.171 121.124 155.505 121.124 158.383C121.124 161.262 123.465 163.596 126.353 163.596Z" fill="url(#paint20_linear_1_2)"/>
</g>
<mask id="mask11_1_2" style="mask-type:alpha" maskUnits="userSpaceOnUse" x="0" y="179" width="11" height="11">
<path d="M5.22838 189.713C8.11594 189.713 10.4568 187.379 10.4568 184.5C10.4568 181.621 8.11594 179.288 5.22838 179.288C2.34082 179.288 0 181.621 0 184.5C0 187.379 2.34082 189.713 5.22838 189.713Z" fill="url(#paint21_linear_1_2)"/>
</mask>
<g mask="url(#mask11_1_2)">
<path d="M5.22838 189.713C8.11594 189.713 10.4568 187.379 10.4568 184.5C10.4568 181.621 8.11594 179.288 5.22838 179.288C2.34082 179.288 0 181.621 0 184.5C0 187.379 2.34082 189.713 5.22838 189.713Z" fill="url(#paint22_linear_1_2)"/>
</g>
<mask id="mask12_1_2" style="mask-type:alpha" maskUnits="userSpaceOnUse" x="30" y="179" width="11" height="11">
<path d="M35.5095 189.713C38.397 189.713 40.7378 187.379 40.7378 184.5C40.7378 181.621 38.397 179.288 35.5095 179.288C32.6219 179.288 30.2811 181.621 30.2811 184.5C30.2811 187.379 32.6219 189.713 35.5095 189.713Z" fill="url(#paint23_linear_1_2)"/>
</mask>
<g mask="url(#mask12_1_2)">
<path d="M35.5095 189.713C38.397 189.713 40.7378 187.379 40.7378 184.5C40.7378 181.621 38.397 179.288 35.5095 179.288C32.6219 179.288 30.2811 181.621 30.2811 184.5C30.2811 187.379 32.6219 189.713 35.5095 189.713Z" fill="url(#paint24_linear_1_2)"/>
</g>
<mask id="mask13_1_2" style="mask-type:alpha" maskUnits="userSpaceOnUse" x="60" y="179" width="12" height="11">
<path d="M65.7905 189.713C68.6781 189.713 71.0189 187.379 71.0189 184.5C71.0189 181.621 68.6781 179.288 65.7905 179.288C62.903 179.288 60.5621 181.621 60.5621 184.5C60.5621 187.379 62.903 189.713 65.7905 189.713Z" fill="url(#paint25_linear_1_2)"/>
</mask>
<g mask="url(#mask13_1_2)">
<path d="M65.7905 189.713C68.6781 189.713 71.0189 187.379 71.0189 184.5C71.0189 181.621 68.6781 179.288 65.7905 179.288C62.903 179.288 60.5621 181.621 60.5621 184.5C60.5621 187.379 62.903 189.713 65.7905 189.713Z" fill="url(#paint26_linear_1_2)"/>
</g>
<mask id="mask14_1_2" style="mask-type:alpha" maskUnits="userSpaceOnUse" x="90" y="179" width="12" height="11">
<path d="M96.0716 189.713C98.9592 189.713 101.3 187.379 101.3 184.5C101.3 181.621 98.9592 179.288 96.0716 179.288C93.184 179.288 90.8432 181.621 90.8432 184.5C90.8432 187.379 93.184 189.713 96.0716 189.713Z" fill="url(#paint27_linear_1_2)"/>
</mask>
<g mask="url(#mask14_1_2)">
<path d="M96.0716 189.713C98.9592 189.713 101.3 187.379 101.3 184.5C101.3 181.621 98.9592 179.288 96.0716 179.288C93.184 179.288 90.8432 181.621 90.8432 184.5C90.8432 187.379 93.184 189.713 96.0716 189.713Z" fill="url(#paint28_linear_1_2)"/>
</g>
<mask id="mask15_1_2" style="mask-type:alpha" maskUnits="userSpaceOnUse" x="121" y="179" width="11" height="11">
<path d="M126.353 189.713C129.24 189.713 131.581 187.379 131.581 184.5C131.581 181.621 129.24 179.288 126.353 179.288C123.465 179.288 121.124 181.621 121.124 184.5C121.124 187.379 123.465 189.713 126.353 189.713Z" fill="url(#paint29_linear_1_2)"/>
</mask>
<g mask="url(#mask15_1_2)">
<path d="M126.353 189.713C129.24 189.713 131.581 187.379 131.581 184.5C131.581 181.621 129.24 179.288 126.353 179.288C123.465 179.288 121.124 181.621 121.124 184.5C121.124 187.379 123.465 189.713 126.353 189.713Z" fill="url(#paint30_linear_1_2)"/>
</g>
<mask id="mask16_1_2" style="mask-type:alpha" maskUnits="userSpaceOnUse" x="0" y="205" width="11" height="11">
<path d="M5.22838 215.883C8.11594 215.883 10.4568 213.55 10.4568 210.671C10.4568 207.792 8.11594 205.458 5.22838 205.458C2.34082 205.458 0 207.792 0 210.671C0 213.55 2.34082 215.883 5.22838 215.883Z" fill="url(#paint31_linear_1_2)"/>
</mask>
<g mask="url(#mask16_1_2)">
<path d="M5.22838 215.883C8.11594 215.883 10.4568 213.55 10.4568 210.671C10.4568 207.792 8.11594 205.458 5.22838 205.458C2.34082 205.458 0 207.792 0 210.671C0 213.55 2.34082 215.883 5.22838 215.883Z" fill="url(#paint32_linear_1_2)"/>
</g>
<mask id="mask17_1_2" style="mask-type:alpha" maskUnits="userSpaceOnUse" x="30" y="205" width="11" height="11">
<path d="M35.5095 215.883C38.397 215.883 40.7378 213.55 40.7378 210.671C40.7378 207.792 38.397 205.458 35.5095 205.458C32.6219 205.458 30.2811 207.792 30.2811 210.671C30.2811 213.55 32.6219 215.883 35.5095 215.883Z" fill="url(#paint33_linear_1_2)"/>
</mask>
<g mask="url(#mask17_1_2)">
<path d="M35.5095 215.883C38.397 215.883 40.7378 213.55 40.7378 210.671C40.7378 207.792 38.397 205.458 35.5095 205.458C32.6219 205.458 30.2811 207.792 30.2811 210.671C30.2811 213.55 32.6219 215.883 35.5095 215.883Z" fill="url(#paint34_linear_1_2)"/>
</g>
<mask id="mask18_1_2" style="mask-type:alpha" maskUnits="userSpaceOnUse" x="60" y="205" width="12" height="11">
<path d="M65.7905 215.883C68.6781 215.883 71.0189 213.55 71.0189 210.671C71.0189 207.792 68.6781 205.458 65.7905 205.458C62.903 205.458 60.5621 207.792 60.5621 210.671C60.5621 213.55 62.903 215.883 65.7905 215.883Z" fill="url(#paint35_linear_1_2)"/>
</mask>
<g mask="url(#mask18_1_2)">
<path d="M65.7905 215.883C68.6781 215.883 71.0189 213.55 71.0189 210.671C71.0189 207.792 68.6781 205.458 65.7905 205.458C62.903 205.458 60.5621 207.792 60.5621 210.671C60.5621 213.55 62.903 215.883 65.7905 215.883Z" fill="url(#paint36_linear_1_2)"/>
</g>
<mask id="mask19_1_2" style="mask-type:alpha" maskUnits="userSpaceOnUse" x="90" y="205" width="12" height="11">
<path d="M96.0716 215.883C98.9592 215.883 101.3 213.55 101.3 210.671C101.3 207.792 98.9592 205.458 96.0716 205.458C93.184 205.458 90.8432 207.792 90.8432 210.671C90.8432 213.55 93.184 215.883 96.0716 215.883Z" fill="url(#paint37_linear_1_2)"/>
</mask>
<g mask="url(#mask19_1_2)">
<path d="M96.0716 215.883C98.9592 215.883 101.3 213.55 101.3 210.671C101.3 207.792 98.9592 205.458 96.0716 205.458C93.184 205.458 90.8432 207.792 90.8432 210.671C90.8432 213.55 93.184 215.883 96.0716 215.883Z" fill="url(#paint38_linear_1_2)"/>
</g>
<mask id="mask20_1_2" style="mask-type:alpha" maskUnits="userSpaceOnUse" x="121" y="205" width="11" height="11">
<path d="M126.353 215.883C129.24 215.883 131.581 213.55 131.581 210.671C131.581 207.792 129.24 205.458 126.353 205.458C123.465 205.458 121.124 207.792 121.124 210.671C121.124 213.55 123.465 215.883 126.353 215.883Z" fill="url(#paint39_linear_1_2)"/>
</mask>
<g mask="url(#mask20_1_2)">
<path d="M126.353 215.883C129.24 215.883 131.581 213.55 131.581 210.671C131.581 207.792 129.24 205.458 126.353 205.458C123.465 205.458 121.124 207.792 121.124 210.671C121.124 213.55 123.465 215.883 126.353 215.883Z" fill="url(#paint40_linear_1_2)"/>
</g>
<mask id="mask21_1_2" style="mask-type:alpha" maskUnits="userSpaceOnUse" x="0" y="231" width="11" height="11">
<path d="M5.22838 242C8.11594 242 10.4568 239.666 10.4568 236.788C10.4568 233.909 8.11594 231.575 5.22838 231.575C2.34082 231.575 0 233.909 0 236.788C0 239.666 2.34082 242 5.22838 242Z" fill="url(#paint41_linear_1_2)"/>
</mask>
<g mask="url(#mask21_1_2)">
<path d="M5.22838 242C8.11594 242 10.4568 239.666 10.4568 236.788C10.4568 233.909 8.11594 231.575 5.22838 231.575C2.34082 231.575 0 233.909 0 236.788C0 239.666 2.34082 242 5.22838 242Z" fill="url(#paint42_linear_1_2)"/>
</g>
<mask id="mask22_1_2" style="mask-type:alpha" maskUnits="userSpaceOnUse" x="30" y="231" width="11" height="11">
<path d="M35.5095 242C38.397 242 40.7378 239.666 40.7378 236.788C40.7378 233.909 38.397 231.575 35.5095 231.575C32.6219 231.575 30.2811 233.909 30.2811 236.788C30.2811 239.666 32.6219 242 35.5095 242Z" fill="url(#paint43_linear_1_2)"/>
</mask>
<g mask="url(#mask22_1_2)">
<path d="M35.5095 242C38.397 242 40.7378 239.666 40.7378 236.788C40.7378 233.909 38.397 231.575 35.5095 231.575C32.6219 231.575 30.2811 233.909 30.2811 236.788C30.2811 239.666 32.6219 242 35.5095 242Z" fill="url(#paint44_linear_1_2)"/>
</g>
<mask id="mask23_1_2" style="mask-type:alpha" maskUnits="userSpaceOnUse" x="60" y="231" width="12" height="11">
<path d="M65.7905 242C68.6781 242 71.0189 239.666 71.0189 236.788C71.0189 233.909 68.6781 231.575 65.7905 231.575C62.903 231.575 60.5621 233.909 60.5621 236.788C60.5621 239.666 62.903 242 65.7905 242Z" fill="url(#paint45_linear_1_2)"/>
</mask>
<g mask="url(#mask23_1_2)">
<path d="M65.7905 242C68.6781 242 71.0189 239.666 71.0189 236.788C71.0189 233.909 68.6781 231.575 65.7905 231.575C62.903 231.575 60.5621 233.909 60.5621 236.788C60.5621 239.666 62.903 242 65.7905 242Z" fill="url(#paint46_linear_1_2)"/>
</g>
<mask id="mask24_1_2" style="mask-type:alpha" maskUnits="userSpaceOnUse" x="90" y="231" width="12" height="11">
<path d="M96.0716 242C98.9592 242 101.3 239.666 101.3 236.788C101.3 233.909 98.9592 231.575 96.0716 231.575C93.184 231.575 90.8432 233.909 90.8432 236.788C90.8432 239.666 93.184 242 96.0716 242Z" fill="url(#paint47_linear_1_2)"/>
</mask>
<g mask="url(#mask24_1_2)">
<path d="M96.0716 242C98.9592 242 101.3 239.666 101.3 236.788C101.3 233.909 98.9592 231.575 96.0716 231.575C93.184 231.575 90.8432 233.909 90.8432 236.788C90.8432 239.666 93.184 242 96.0716 242Z" fill="url(#paint48_linear_1_2)"/>
</g>
<mask id="mask25_1_2" style="mask-type:alpha" maskUnits="userSpaceOnUse" x="121" y="231" width="11" height="11">
<path d="M126.353 242C129.24 242 131.581 239.666 131.581 236.788C131.581 233.909 129.24 231.575 126.353 231.575C123.465 231.575 121.124 233.909 121.124 236.788C121.124 239.666 123.465 242 126.353 242Z" fill="url(#paint49_linear_1_2)"/>
</mask>
<g mask="url(#mask25_1_2)">
<path d="M126.353 242C129.24 242 131.581 239.666 131.581 236.788C131.581 233.909 129.24 231.575 126.353 231.575C123.465 231.575 121.124 233.909 121.124 236.788C121.124 239.666 123.465 242 126.353 242Z" fill="url(#paint50_linear_1_2)"/>
</g>
</g>
</g>
<defs>
<linearGradient id="paint0_linear_1_2" x1="1218.01" y1="742.124" x2="1399.15" y2="151.876" gradientUnits="userSpaceOnUse">
<stop stop-color="#F3F7FF"/>
<stop offset="1" stop-color="#DEEEFE"/>
</linearGradient>
<linearGradient id="paint1_linear_1_2" x1="54.996" y1="258.134" x2="-16.4057" y2="76.3301" gradientUnits="userSpaceOnUse">
<stop/>
<stop offset="1" stop-color="white"/>
</linearGradient>
<linearGradient id="paint2_linear_1_2" x1="54.996" y1="258.134" x2="-16.4057" y2="76.3301" gradientUnits="userSpaceOnUse">
<stop stop-color="#97C3F9"/>
<stop offset="1" stop-color="#93C1F9"/>
</linearGradient>
<linearGradient id="paint3_linear_1_2" x1="81.2005" y1="247.843" x2="9.79886" y2="66.0388" gradientUnits="userSpaceOnUse">
<stop/>
<stop offset="1" stop-color="white"/>
</linearGradient>
<linearGradient id="paint4_linear_1_2" x1="81.2005" y1="247.843" x2="9.79886" y2="66.0388" gradientUnits="userSpaceOnUse">
<stop stop-color="#97C3F9"/>
<stop offset="1" stop-color="#93C1F9"/>
</linearGradient>
<linearGradient id="paint5_linear_1_2" x1="107.405" y1="237.551" x2="36.0033" y2="55.7476" gradientUnits="userSpaceOnUse">
<stop/>
<stop offset="1" stop-color="white"/>
</linearGradient>
<linearGradient id="paint6_linear_1_2" x1="107.405" y1="237.551" x2="36.0033" y2="55.7476" gradientUnits="userSpaceOnUse">
<stop stop-color="#97C3F9"/>
<stop offset="1" stop-color="#93C1F9"/>
</linearGradient>
<linearGradient id="paint7_linear_1_2" x1="133.609" y1="227.26" x2="62.2075" y2="45.4557" gradientUnits="userSpaceOnUse">
<stop/>
<stop offset="1" stop-color="white"/>
</linearGradient>
<linearGradient id="paint8_linear_1_2" x1="133.609" y1="227.26" x2="62.2075" y2="45.4557" gradientUnits="userSpaceOnUse">
<stop stop-color="#97C3F9"/>
<stop offset="1" stop-color="#93C1F9"/>
</linearGradient>
<linearGradient id="paint9_linear_1_2" x1="159.813" y1="216.968" x2="88.4118" y2="35.1642" gradientUnits="userSpaceOnUse">
<stop/>
<stop offset="1" stop-color="white"/>
</linearGradient>
<linearGradient id="paint10_linear_1_2" x1="159.813" y1="216.968" x2="88.4118" y2="35.1642" gradientUnits="userSpaceOnUse">
<stop stop-color="#97C3F9"/>
<stop offset="1" stop-color="#93C1F9"/>
</linearGradient>
<linearGradient id="paint11_linear_1_2" x1="46.0538" y1="261.645" x2="-25.3465" y2="79.843" gradientUnits="userSpaceOnUse">
<stop/>
<stop offset="1" stop-color="white"/>
</linearGradient>
<linearGradient id="paint12_linear_1_2" x1="46.0538" y1="261.645" x2="-25.3465" y2="79.843" gradientUnits="userSpaceOnUse">
<stop stop-color="#97C3F9"/>
<stop offset="1" stop-color="#93C1F9"/>
</linearGradient>
<linearGradient id="paint13_linear_1_2" x1="72.2581" y1="251.354" x2="0.857872" y2="69.5511" gradientUnits="userSpaceOnUse">
<stop/>
<stop offset="1" stop-color="white"/>
</linearGradient>
<linearGradient id="paint14_linear_1_2" x1="72.2581" y1="251.354" x2="0.857872" y2="69.5511" gradientUnits="userSpaceOnUse">
<stop stop-color="#97C3F9"/>
<stop offset="1" stop-color="#93C1F9"/>
</linearGradient>
<linearGradient id="paint15_linear_1_2" x1="98.4624" y1="241.062" x2="27.0622" y2="59.2598" gradientUnits="userSpaceOnUse">
<stop/>
<stop offset="1" stop-color="white"/>
</linearGradient>
<linearGradient id="paint16_linear_1_2" x1="98.4624" y1="241.062" x2="27.0622" y2="59.2598" gradientUnits="userSpaceOnUse">
<stop stop-color="#97C3F9"/>
<stop offset="1" stop-color="#93C1F9"/>
</linearGradient>
<linearGradient id="paint17_linear_1_2" x1="124.667" y1="230.771" x2="53.2665" y2="48.9684" gradientUnits="userSpaceOnUse">
<stop/>
<stop offset="1" stop-color="white"/>
</linearGradient>
<linearGradient id="paint18_linear_1_2" x1="124.667" y1="230.771" x2="53.2665" y2="48.9684" gradientUnits="userSpaceOnUse">
<stop stop-color="#97C3F9"/>
<stop offset="1" stop-color="#93C1F9"/>
</linearGradient>
<linearGradient id="paint19_linear_1_2" x1="150.871" y1="220.479" x2="79.4708" y2="38.677" gradientUnits="userSpaceOnUse">
<stop/>
<stop offset="1" stop-color="white"/>
</linearGradient>
<linearGradient id="paint20_linear_1_2" x1="150.871" y1="220.479" x2="79.4708" y2="38.677" gradientUnits="userSpaceOnUse">
<stop stop-color="#97C3F9"/>
<stop offset="1" stop-color="#93C1F9"/>
</linearGradient>
<linearGradient id="paint21_linear_1_2" x1="37.1113" y1="265.158" x2="-34.2903" y2="83.3543" gradientUnits="userSpaceOnUse">
<stop/>
<stop offset="1" stop-color="white"/>
</linearGradient>
<linearGradient id="paint22_linear_1_2" x1="37.1113" y1="265.158" x2="-34.2903" y2="83.3543" gradientUnits="userSpaceOnUse">
<stop stop-color="#97C3F9"/>
<stop offset="1" stop-color="#93C1F9"/>
</linearGradient>
<linearGradient id="paint23_linear_1_2" x1="63.3157" y1="254.867" x2="-8.08593" y2="73.0627" gradientUnits="userSpaceOnUse">
<stop/>
<stop offset="1" stop-color="white"/>
</linearGradient>
<linearGradient id="paint24_linear_1_2" x1="63.3157" y1="254.867" x2="-8.08593" y2="73.0627" gradientUnits="userSpaceOnUse">
<stop stop-color="#97C3F9"/>
<stop offset="1" stop-color="#93C1F9"/>
</linearGradient>
<linearGradient id="paint25_linear_1_2" x1="89.5201" y1="244.575" x2="18.1185" y2="62.7713" gradientUnits="userSpaceOnUse">
<stop/>
<stop offset="1" stop-color="white"/>
</linearGradient>
<linearGradient id="paint26_linear_1_2" x1="89.5201" y1="244.575" x2="18.1185" y2="62.7713" gradientUnits="userSpaceOnUse">
<stop stop-color="#97C3F9"/>
<stop offset="1" stop-color="#93C1F9"/>
</linearGradient>
<linearGradient id="paint27_linear_1_2" x1="115.724" y1="234.283" x2="44.3227" y2="52.4796" gradientUnits="userSpaceOnUse">
<stop/>
<stop offset="1" stop-color="white"/>
</linearGradient>
<linearGradient id="paint28_linear_1_2" x1="115.724" y1="234.283" x2="44.3227" y2="52.4796" gradientUnits="userSpaceOnUse">
<stop stop-color="#97C3F9"/>
<stop offset="1" stop-color="#93C1F9"/>
</linearGradient>
<linearGradient id="paint29_linear_1_2" x1="141.929" y1="223.992" x2="70.527" y2="42.1881" gradientUnits="userSpaceOnUse">
<stop/>
<stop offset="1" stop-color="white"/>
</linearGradient>
<linearGradient id="paint30_linear_1_2" x1="141.929" y1="223.992" x2="70.527" y2="42.1881" gradientUnits="userSpaceOnUse">
<stop stop-color="#97C3F9"/>
<stop offset="1" stop-color="#93C1F9"/>
</linearGradient>
<linearGradient id="paint31_linear_1_2" x1="28.169" y1="268.67" x2="-43.2327" y2="86.8662" gradientUnits="userSpaceOnUse">
<stop/>
<stop offset="1" stop-color="white"/>
</linearGradient>
<linearGradient id="paint32_linear_1_2" x1="28.169" y1="268.67" x2="-43.2327" y2="86.8662" gradientUnits="userSpaceOnUse">
<stop stop-color="#97C3F9"/>
<stop offset="1" stop-color="#93C1F9"/>
</linearGradient>
<linearGradient id="paint33_linear_1_2" x1="54.3734" y1="258.379" x2="-17.0283" y2="76.5747" gradientUnits="userSpaceOnUse">
<stop/>
<stop offset="1" stop-color="white"/>
</linearGradient>
<linearGradient id="paint34_linear_1_2" x1="54.3734" y1="258.379" x2="-17.0283" y2="76.5747" gradientUnits="userSpaceOnUse">
<stop stop-color="#97C3F9"/>
<stop offset="1" stop-color="#93C1F9"/>
</linearGradient>
<linearGradient id="paint35_linear_1_2" x1="80.5777" y1="248.087" x2="9.17605" y2="66.2833" gradientUnits="userSpaceOnUse">
<stop/>
<stop offset="1" stop-color="white"/>
</linearGradient>
<linearGradient id="paint36_linear_1_2" x1="80.5777" y1="248.087" x2="9.17605" y2="66.2833" gradientUnits="userSpaceOnUse">
<stop stop-color="#97C3F9"/>
<stop offset="1" stop-color="#93C1F9"/>
</linearGradient>
<linearGradient id="paint37_linear_1_2" x1="106.782" y1="237.796" x2="35.3804" y2="55.9917" gradientUnits="userSpaceOnUse">
<stop/>
<stop offset="1" stop-color="white"/>
</linearGradient>
<linearGradient id="paint38_linear_1_2" x1="106.782" y1="237.796" x2="35.3804" y2="55.9917" gradientUnits="userSpaceOnUse">
<stop stop-color="#97C3F9"/>
<stop offset="1" stop-color="#93C1F9"/>
</linearGradient>
<linearGradient id="paint39_linear_1_2" x1="132.986" y1="227.504" x2="61.5846" y2="45.7001" gradientUnits="userSpaceOnUse">
<stop/>
<stop offset="1" stop-color="white"/>
</linearGradient>
<linearGradient id="paint40_linear_1_2" x1="132.986" y1="227.504" x2="61.5846" y2="45.7001" gradientUnits="userSpaceOnUse">
<stop stop-color="#97C3F9"/>
<stop offset="1" stop-color="#93C1F9"/>
</linearGradient>
<linearGradient id="paint41_linear_1_2" x1="19.2266" y1="272.182" x2="-52.1751" y2="90.3783" gradientUnits="userSpaceOnUse">
<stop/>
<stop offset="1" stop-color="white"/>
</linearGradient>
<linearGradient id="paint42_linear_1_2" x1="19.2266" y1="272.182" x2="-52.1751" y2="90.3783" gradientUnits="userSpaceOnUse">
<stop stop-color="#97C3F9"/>
<stop offset="1" stop-color="#93C1F9"/>
</linearGradient>
<linearGradient id="paint43_linear_1_2" x1="45.431" y1="261.891" x2="-25.9706" y2="80.0868" gradientUnits="userSpaceOnUse">
<stop/>
<stop offset="1" stop-color="white"/>
</linearGradient>
<linearGradient id="paint44_linear_1_2" x1="45.431" y1="261.891" x2="-25.9706" y2="80.0868" gradientUnits="userSpaceOnUse">
<stop stop-color="#97C3F9"/>
<stop offset="1" stop-color="#93C1F9"/>
</linearGradient>
<linearGradient id="paint45_linear_1_2" x1="71.6353" y1="251.599" x2="0.233711" y2="69.7955" gradientUnits="userSpaceOnUse">
<stop/>
<stop offset="1" stop-color="white"/>
</linearGradient>
<linearGradient id="paint46_linear_1_2" x1="71.6353" y1="251.599" x2="0.233711" y2="69.7955" gradientUnits="userSpaceOnUse">
<stop stop-color="#97C3F9"/>
<stop offset="1" stop-color="#93C1F9"/>
</linearGradient>
<linearGradient id="paint47_linear_1_2" x1="97.8397" y1="241.308" x2="26.438" y2="59.5038" gradientUnits="userSpaceOnUse">
<stop/>
<stop offset="1" stop-color="white"/>
</linearGradient>
<linearGradient id="paint48_linear_1_2" x1="97.8397" y1="241.308" x2="26.438" y2="59.5038" gradientUnits="userSpaceOnUse">
<stop stop-color="#97C3F9"/>
<stop offset="1" stop-color="#93C1F9"/>
</linearGradient>
<linearGradient id="paint49_linear_1_2" x1="124.044" y1="231.016" x2="52.6423" y2="49.2123" gradientUnits="userSpaceOnUse">
<stop/>
<stop offset="1" stop-color="white"/>
</linearGradient>
<linearGradient id="paint50_linear_1_2" x1="124.044" y1="231.016" x2="52.6423" y2="49.2123" gradientUnits="userSpaceOnUse">
<stop stop-color="#97C3F9"/>
<stop offset="1" stop-color="#93C1F9"/>
</linearGradient>
<clipPath id="clip0_1_2">
<rect width="1409" height="792" fill="white"/>
</clipPath>
</defs>
</svg>
