<svg width="1172" height="425" viewBox="0 0 1172 425" fill="none" xmlns="http://www.w3.org/2000/svg">
<g clip-path="url(#clip0_1_2)">
<g opacity="0.3">
<mask id="mask0_1_2" style="mask-type:alpha" maskUnits="userSpaceOnUse" x="0" y="271" width="11" height="11">
<path d="M5.22838 281.425C8.11594 281.425 10.4568 279.091 10.4568 276.212C10.4568 273.334 8.11594 271 5.22838 271C2.34082 271 0 273.334 0 276.212C0 279.091 2.34082 281.425 5.22838 281.425Z" fill="url(#paint0_linear_1_2)"/>
</mask>
<g mask="url(#mask0_1_2)">
<path d="M5.22838 281.425C8.11594 281.425 10.4568 279.091 10.4568 276.212C10.4568 273.334 8.11594 271 5.22838 271C2.34082 271 0 273.334 0 276.212C0 279.091 2.34082 281.425 5.22838 281.425Z" fill="url(#paint1_linear_1_2)"/>
</g>
<mask id="mask1_1_2" style="mask-type:alpha" maskUnits="userSpaceOnUse" x="30" y="271" width="11" height="11">
<path d="M35.5095 281.425C38.397 281.425 40.7378 279.091 40.7378 276.212C40.7378 273.334 38.397 271 35.5095 271C32.6219 271 30.2811 273.334 30.2811 276.212C30.2811 279.091 32.6219 281.425 35.5095 281.425Z" fill="url(#paint2_linear_1_2)"/>
</mask>
<g mask="url(#mask1_1_2)">
<path d="M35.5095 281.425C38.397 281.425 40.7378 279.091 40.7378 276.212C40.7378 273.334 38.397 271 35.5095 271C32.6219 271 30.2811 273.334 30.2811 276.212C30.2811 279.091 32.6219 281.425 35.5095 281.425Z" fill="url(#paint3_linear_1_2)"/>
</g>
<mask id="mask2_1_2" style="mask-type:alpha" maskUnits="userSpaceOnUse" x="60" y="271" width="12" height="11">
<path d="M65.7905 281.425C68.6781 281.425 71.0189 279.091 71.0189 276.212C71.0189 273.334 68.6781 271 65.7905 271C62.903 271 60.5621 273.334 60.5621 276.212C60.5621 279.091 62.903 281.425 65.7905 281.425Z" fill="url(#paint4_linear_1_2)"/>
</mask>
<g mask="url(#mask2_1_2)">
<path d="M65.7905 281.425C68.6781 281.425 71.0189 279.091 71.0189 276.212C71.0189 273.334 68.6781 271 65.7905 271C62.903 271 60.5621 273.334 60.5621 276.212C60.5621 279.091 62.903 281.425 65.7905 281.425Z" fill="url(#paint5_linear_1_2)"/>
</g>
<mask id="mask3_1_2" style="mask-type:alpha" maskUnits="userSpaceOnUse" x="90" y="271" width="12" height="11">
<path d="M96.0716 281.425C98.9592 281.425 101.3 279.091 101.3 276.212C101.3 273.334 98.9592 271 96.0716 271C93.184 271 90.8432 273.334 90.8432 276.212C90.8432 279.091 93.184 281.425 96.0716 281.425Z" fill="url(#paint6_linear_1_2)"/>
</mask>
<g mask="url(#mask3_1_2)">
<path d="M96.0716 281.425C98.9592 281.425 101.3 279.091 101.3 276.212C101.3 273.334 98.9592 271 96.0716 271C93.184 271 90.8432 273.334 90.8432 276.212C90.8432 279.091 93.184 281.425 96.0716 281.425Z" fill="url(#paint7_linear_1_2)"/>
</g>
<mask id="mask4_1_2" style="mask-type:alpha" maskUnits="userSpaceOnUse" x="121" y="271" width="11" height="11">
<path d="M126.353 281.425C129.24 281.425 131.581 279.091 131.581 276.212C131.581 273.334 129.24 271 126.353 271C123.465 271 121.124 273.334 121.124 276.212C121.124 279.091 123.465 281.425 126.353 281.425Z" fill="url(#paint8_linear_1_2)"/>
</mask>
<g mask="url(#mask4_1_2)">
<path d="M126.353 281.425C129.24 281.425 131.581 279.091 131.581 276.212C131.581 273.334 129.24 271 126.353 271C123.465 271 121.124 273.334 121.124 276.212C121.124 279.091 123.465 281.425 126.353 281.425Z" fill="url(#paint9_linear_1_2)"/>
</g>
<mask id="mask5_1_2" style="mask-type:alpha" maskUnits="userSpaceOnUse" x="0" y="297" width="11" height="11">
<path d="M5.22838 307.596C8.11594 307.596 10.4568 305.262 10.4568 302.383C10.4568 299.505 8.11594 297.171 5.22838 297.171C2.34082 297.171 0 299.505 0 302.383C0 305.262 2.34082 307.596 5.22838 307.596Z" fill="url(#paint10_linear_1_2)"/>
</mask>
<g mask="url(#mask5_1_2)">
<path d="M5.22838 307.596C8.11594 307.596 10.4568 305.262 10.4568 302.383C10.4568 299.505 8.11594 297.171 5.22838 297.171C2.34082 297.171 0 299.505 0 302.383C0 305.262 2.34082 307.596 5.22838 307.596Z" fill="url(#paint11_linear_1_2)"/>
</g>
<mask id="mask6_1_2" style="mask-type:alpha" maskUnits="userSpaceOnUse" x="30" y="297" width="11" height="11">
<path d="M35.5095 307.596C38.397 307.596 40.7378 305.262 40.7378 302.383C40.7378 299.505 38.397 297.171 35.5095 297.171C32.6219 297.171 30.2811 299.505 30.2811 302.383C30.2811 305.262 32.6219 307.596 35.5095 307.596Z" fill="url(#paint12_linear_1_2)"/>
</mask>
<g mask="url(#mask6_1_2)">
<path d="M35.5095 307.596C38.397 307.596 40.7378 305.262 40.7378 302.383C40.7378 299.505 38.397 297.171 35.5095 297.171C32.6219 297.171 30.2811 299.505 30.2811 302.383C30.2811 305.262 32.6219 307.596 35.5095 307.596Z" fill="url(#paint13_linear_1_2)"/>
</g>
<mask id="mask7_1_2" style="mask-type:alpha" maskUnits="userSpaceOnUse" x="60" y="297" width="12" height="11">
<path d="M65.7905 307.596C68.6781 307.596 71.0189 305.262 71.0189 302.383C71.0189 299.505 68.6781 297.171 65.7905 297.171C62.903 297.171 60.5621 299.505 60.5621 302.383C60.5621 305.262 62.903 307.596 65.7905 307.596Z" fill="url(#paint14_linear_1_2)"/>
</mask>
<g mask="url(#mask7_1_2)">
<path d="M65.7905 307.596C68.6781 307.596 71.0189 305.262 71.0189 302.383C71.0189 299.505 68.6781 297.171 65.7905 297.171C62.903 297.171 60.5621 299.505 60.5621 302.383C60.5621 305.262 62.903 307.596 65.7905 307.596Z" fill="url(#paint15_linear_1_2)"/>
</g>
<mask id="mask8_1_2" style="mask-type:alpha" maskUnits="userSpaceOnUse" x="90" y="297" width="12" height="11">
<path d="M96.0716 307.596C98.9592 307.596 101.3 305.262 101.3 302.383C101.3 299.505 98.9592 297.171 96.0716 297.171C93.184 297.171 90.8432 299.505 90.8432 302.383C90.8432 305.262 93.184 307.596 96.0716 307.596Z" fill="url(#paint16_linear_1_2)"/>
</mask>
<g mask="url(#mask8_1_2)">
<path d="M96.0716 307.596C98.9592 307.596 101.3 305.262 101.3 302.383C101.3 299.505 98.9592 297.171 96.0716 297.171C93.184 297.171 90.8432 299.505 90.8432 302.383C90.8432 305.262 93.184 307.596 96.0716 307.596Z" fill="url(#paint17_linear_1_2)"/>
</g>
<mask id="mask9_1_2" style="mask-type:alpha" maskUnits="userSpaceOnUse" x="121" y="297" width="11" height="11">
<path d="M126.353 307.596C129.24 307.596 131.581 305.262 131.581 302.383C131.581 299.505 129.24 297.171 126.353 297.171C123.465 297.171 121.124 299.505 121.124 302.383C121.124 305.262 123.465 307.596 126.353 307.596Z" fill="url(#paint18_linear_1_2)"/>
</mask>
<g mask="url(#mask9_1_2)">
<path d="M126.353 307.596C129.24 307.596 131.581 305.262 131.581 302.383C131.581 299.505 129.24 297.171 126.353 297.171C123.465 297.171 121.124 299.505 121.124 302.383C121.124 305.262 123.465 307.596 126.353 307.596Z" fill="url(#paint19_linear_1_2)"/>
</g>
<mask id="mask10_1_2" style="mask-type:alpha" maskUnits="userSpaceOnUse" x="0" y="323" width="11" height="11">
<path d="M5.22838 333.712C8.11594 333.712 10.4568 331.379 10.4568 328.5C10.4568 325.621 8.11594 323.287 5.22838 323.287C2.34082 323.287 0 325.621 0 328.5C0 331.379 2.34082 333.712 5.22838 333.712Z" fill="url(#paint20_linear_1_2)"/>
</mask>
<g mask="url(#mask10_1_2)">
<path d="M5.22838 333.712C8.11594 333.712 10.4568 331.379 10.4568 328.5C10.4568 325.621 8.11594 323.287 5.22838 323.287C2.34082 323.287 0 325.621 0 328.5C0 331.379 2.34082 333.712 5.22838 333.712Z" fill="url(#paint21_linear_1_2)"/>
</g>
<mask id="mask11_1_2" style="mask-type:alpha" maskUnits="userSpaceOnUse" x="30" y="323" width="11" height="11">
<path d="M35.5095 333.712C38.397 333.712 40.7378 331.379 40.7378 328.5C40.7378 325.621 38.397 323.287 35.5095 323.287C32.6219 323.287 30.2811 325.621 30.2811 328.5C30.2811 331.379 32.6219 333.712 35.5095 333.712Z" fill="url(#paint22_linear_1_2)"/>
</mask>
<g mask="url(#mask11_1_2)">
<path d="M35.5095 333.712C38.397 333.712 40.7378 331.379 40.7378 328.5C40.7378 325.621 38.397 323.287 35.5095 323.287C32.6219 323.287 30.2811 325.621 30.2811 328.5C30.2811 331.379 32.6219 333.712 35.5095 333.712Z" fill="url(#paint23_linear_1_2)"/>
</g>
<mask id="mask12_1_2" style="mask-type:alpha" maskUnits="userSpaceOnUse" x="60" y="323" width="12" height="11">
<path d="M65.7905 333.712C68.6781 333.712 71.0189 331.379 71.0189 328.5C71.0189 325.621 68.6781 323.287 65.7905 323.287C62.903 323.287 60.5621 325.621 60.5621 328.5C60.5621 331.379 62.903 333.712 65.7905 333.712Z" fill="url(#paint24_linear_1_2)"/>
</mask>
<g mask="url(#mask12_1_2)">
<path d="M65.7905 333.712C68.6781 333.712 71.0189 331.379 71.0189 328.5C71.0189 325.621 68.6781 323.287 65.7905 323.287C62.903 323.287 60.5621 325.621 60.5621 328.5C60.5621 331.379 62.903 333.712 65.7905 333.712Z" fill="url(#paint25_linear_1_2)"/>
</g>
<mask id="mask13_1_2" style="mask-type:alpha" maskUnits="userSpaceOnUse" x="90" y="323" width="12" height="11">
<path d="M96.0716 333.712C98.9592 333.712 101.3 331.379 101.3 328.5C101.3 325.621 98.9592 323.287 96.0716 323.287C93.184 323.287 90.8432 325.621 90.8432 328.5C90.8432 331.379 93.184 333.712 96.0716 333.712Z" fill="url(#paint26_linear_1_2)"/>
</mask>
<g mask="url(#mask13_1_2)">
<path d="M96.0716 333.712C98.9592 333.712 101.3 331.379 101.3 328.5C101.3 325.621 98.9592 323.287 96.0716 323.287C93.184 323.287 90.8432 325.621 90.8432 328.5C90.8432 331.379 93.184 333.712 96.0716 333.712Z" fill="url(#paint27_linear_1_2)"/>
</g>
<mask id="mask14_1_2" style="mask-type:alpha" maskUnits="userSpaceOnUse" x="121" y="323" width="11" height="11">
<path d="M126.353 333.712C129.24 333.712 131.581 331.379 131.581 328.5C131.581 325.621 129.24 323.287 126.353 323.287C123.465 323.287 121.124 325.621 121.124 328.5C121.124 331.379 123.465 333.712 126.353 333.712Z" fill="url(#paint28_linear_1_2)"/>
</mask>
<g mask="url(#mask14_1_2)">
<path d="M126.353 333.712C129.24 333.712 131.581 331.379 131.581 328.5C131.581 325.621 129.24 323.287 126.353 323.287C123.465 323.287 121.124 325.621 121.124 328.5C121.124 331.379 123.465 333.712 126.353 333.712Z" fill="url(#paint29_linear_1_2)"/>
</g>
<mask id="mask15_1_2" style="mask-type:alpha" maskUnits="userSpaceOnUse" x="0" y="349" width="11" height="11">
<path d="M5.22838 359.883C8.11594 359.883 10.4568 357.55 10.4568 354.671C10.4568 351.792 8.11594 349.458 5.22838 349.458C2.34082 349.458 0 351.792 0 354.671C0 357.55 2.34082 359.883 5.22838 359.883Z" fill="url(#paint30_linear_1_2)"/>
</mask>
<g mask="url(#mask15_1_2)">
<path d="M5.22838 359.883C8.11594 359.883 10.4568 357.55 10.4568 354.671C10.4568 351.792 8.11594 349.458 5.22838 349.458C2.34082 349.458 0 351.792 0 354.671C0 357.55 2.34082 359.883 5.22838 359.883Z" fill="url(#paint31_linear_1_2)"/>
</g>
<mask id="mask16_1_2" style="mask-type:alpha" maskUnits="userSpaceOnUse" x="30" y="349" width="11" height="11">
<path d="M35.5095 359.883C38.397 359.883 40.7378 357.55 40.7378 354.671C40.7378 351.792 38.397 349.458 35.5095 349.458C32.6219 349.458 30.2811 351.792 30.2811 354.671C30.2811 357.55 32.6219 359.883 35.5095 359.883Z" fill="url(#paint32_linear_1_2)"/>
</mask>
<g mask="url(#mask16_1_2)">
<path d="M35.5095 359.883C38.397 359.883 40.7378 357.55 40.7378 354.671C40.7378 351.792 38.397 349.458 35.5095 349.458C32.6219 349.458 30.2811 351.792 30.2811 354.671C30.2811 357.55 32.6219 359.883 35.5095 359.883Z" fill="url(#paint33_linear_1_2)"/>
</g>
<mask id="mask17_1_2" style="mask-type:alpha" maskUnits="userSpaceOnUse" x="60" y="349" width="12" height="11">
<path d="M65.7905 359.883C68.6781 359.883 71.0189 357.55 71.0189 354.671C71.0189 351.792 68.6781 349.458 65.7905 349.458C62.903 349.458 60.5621 351.792 60.5621 354.671C60.5621 357.55 62.903 359.883 65.7905 359.883Z" fill="url(#paint34_linear_1_2)"/>
</mask>
<g mask="url(#mask17_1_2)">
<path d="M65.7905 359.883C68.6781 359.883 71.0189 357.55 71.0189 354.671C71.0189 351.792 68.6781 349.458 65.7905 349.458C62.903 349.458 60.5621 351.792 60.5621 354.671C60.5621 357.55 62.903 359.883 65.7905 359.883Z" fill="url(#paint35_linear_1_2)"/>
</g>
<mask id="mask18_1_2" style="mask-type:alpha" maskUnits="userSpaceOnUse" x="90" y="349" width="12" height="11">
<path d="M96.0716 359.883C98.9592 359.883 101.3 357.55 101.3 354.671C101.3 351.792 98.9592 349.458 96.0716 349.458C93.184 349.458 90.8432 351.792 90.8432 354.671C90.8432 357.55 93.184 359.883 96.0716 359.883Z" fill="url(#paint36_linear_1_2)"/>
</mask>
<g mask="url(#mask18_1_2)">
<path d="M96.0716 359.883C98.9592 359.883 101.3 357.55 101.3 354.671C101.3 351.792 98.9592 349.458 96.0716 349.458C93.184 349.458 90.8432 351.792 90.8432 354.671C90.8432 357.55 93.184 359.883 96.0716 359.883Z" fill="url(#paint37_linear_1_2)"/>
</g>
<mask id="mask19_1_2" style="mask-type:alpha" maskUnits="userSpaceOnUse" x="121" y="349" width="11" height="11">
<path d="M126.353 359.883C129.24 359.883 131.581 357.55 131.581 354.671C131.581 351.792 129.24 349.458 126.353 349.458C123.465 349.458 121.124 351.792 121.124 354.671C121.124 357.55 123.465 359.883 126.353 359.883Z" fill="url(#paint38_linear_1_2)"/>
</mask>
<g mask="url(#mask19_1_2)">
<path d="M126.353 359.883C129.24 359.883 131.581 357.55 131.581 354.671C131.581 351.792 129.24 349.458 126.353 349.458C123.465 349.458 121.124 351.792 121.124 354.671C121.124 357.55 123.465 359.883 126.353 359.883Z" fill="url(#paint39_linear_1_2)"/>
</g>
<mask id="mask20_1_2" style="mask-type:alpha" maskUnits="userSpaceOnUse" x="0" y="375" width="11" height="11">
<path d="M5.22838 386C8.11594 386 10.4568 383.666 10.4568 380.788C10.4568 377.909 8.11594 375.575 5.22838 375.575C2.34082 375.575 0 377.909 0 380.788C0 383.666 2.34082 386 5.22838 386Z" fill="url(#paint40_linear_1_2)"/>
</mask>
<g mask="url(#mask20_1_2)">
<path d="M5.22838 386C8.11594 386 10.4568 383.666 10.4568 380.788C10.4568 377.909 8.11594 375.575 5.22838 375.575C2.34082 375.575 0 377.909 0 380.788C0 383.666 2.34082 386 5.22838 386Z" fill="url(#paint41_linear_1_2)"/>
</g>
<mask id="mask21_1_2" style="mask-type:alpha" maskUnits="userSpaceOnUse" x="30" y="375" width="11" height="11">
<path d="M35.5095 386C38.397 386 40.7378 383.666 40.7378 380.788C40.7378 377.909 38.397 375.575 35.5095 375.575C32.6219 375.575 30.2811 377.909 30.2811 380.788C30.2811 383.666 32.6219 386 35.5095 386Z" fill="url(#paint42_linear_1_2)"/>
</mask>
<g mask="url(#mask21_1_2)">
<path d="M35.5095 386C38.397 386 40.7378 383.666 40.7378 380.788C40.7378 377.909 38.397 375.575 35.5095 375.575C32.6219 375.575 30.2811 377.909 30.2811 380.788C30.2811 383.666 32.6219 386 35.5095 386Z" fill="url(#paint43_linear_1_2)"/>
</g>
<mask id="mask22_1_2" style="mask-type:alpha" maskUnits="userSpaceOnUse" x="60" y="375" width="12" height="11">
<path d="M65.7905 386C68.6781 386 71.0189 383.666 71.0189 380.788C71.0189 377.909 68.6781 375.575 65.7905 375.575C62.903 375.575 60.5621 377.909 60.5621 380.788C60.5621 383.666 62.903 386 65.7905 386Z" fill="url(#paint44_linear_1_2)"/>
</mask>
<g mask="url(#mask22_1_2)">
<path d="M65.7905 386C68.6781 386 71.0189 383.666 71.0189 380.788C71.0189 377.909 68.6781 375.575 65.7905 375.575C62.903 375.575 60.5621 377.909 60.5621 380.788C60.5621 383.666 62.903 386 65.7905 386Z" fill="url(#paint45_linear_1_2)"/>
</g>
<mask id="mask23_1_2" style="mask-type:alpha" maskUnits="userSpaceOnUse" x="90" y="375" width="12" height="11">
<path d="M96.0716 386C98.9592 386 101.3 383.666 101.3 380.788C101.3 377.909 98.9592 375.575 96.0716 375.575C93.184 375.575 90.8432 377.909 90.8432 380.788C90.8432 383.666 93.184 386 96.0716 386Z" fill="url(#paint46_linear_1_2)"/>
</mask>
<g mask="url(#mask23_1_2)">
<path d="M96.0716 386C98.9592 386 101.3 383.666 101.3 380.788C101.3 377.909 98.9592 375.575 96.0716 375.575C93.184 375.575 90.8432 377.909 90.8432 380.788C90.8432 383.666 93.184 386 96.0716 386Z" fill="url(#paint47_linear_1_2)"/>
</g>
<mask id="mask24_1_2" style="mask-type:alpha" maskUnits="userSpaceOnUse" x="121" y="375" width="11" height="11">
<path d="M126.353 386C129.24 386 131.581 383.666 131.581 380.788C131.581 377.909 129.24 375.575 126.353 375.575C123.465 375.575 121.124 377.909 121.124 380.788C121.124 383.666 123.465 386 126.353 386Z" fill="url(#paint48_linear_1_2)"/>
</mask>
<g mask="url(#mask24_1_2)">
<path d="M126.353 386C129.24 386 131.581 383.666 131.581 380.788C131.581 377.909 129.24 375.575 126.353 375.575C123.465 375.575 121.124 377.909 121.124 380.788C121.124 383.666 123.465 386 126.353 386Z" fill="url(#paint49_linear_1_2)"/>
</g>
</g>
<path d="M1148 0H76C62.7452 0 52 10.7452 52 24V401C52 414.255 62.7452 425 76 425H1148C1161.25 425 1172 414.255 1172 401V24C1172 10.7452 1161.25 0 1148 0Z" fill="url(#paint50_linear_1_2)"/>
</g>
<defs>
<linearGradient id="paint0_linear_1_2" x1="54.996" y1="402.134" x2="-16.4056" y2="220.33" gradientUnits="userSpaceOnUse">
<stop/>
<stop offset="1" stop-color="white"/>
</linearGradient>
<linearGradient id="paint1_linear_1_2" x1="54.996" y1="402.134" x2="-16.4056" y2="220.33" gradientUnits="userSpaceOnUse">
<stop stop-color="#97C3F9"/>
<stop offset="1" stop-color="#93C1F9"/>
</linearGradient>
<linearGradient id="paint2_linear_1_2" x1="81.2005" y1="391.843" x2="9.79905" y2="210.039" gradientUnits="userSpaceOnUse">
<stop/>
<stop offset="1" stop-color="white"/>
</linearGradient>
<linearGradient id="paint3_linear_1_2" x1="81.2005" y1="391.843" x2="9.79905" y2="210.039" gradientUnits="userSpaceOnUse">
<stop stop-color="#97C3F9"/>
<stop offset="1" stop-color="#93C1F9"/>
</linearGradient>
<linearGradient id="paint4_linear_1_2" x1="107.405" y1="381.551" x2="36.0034" y2="199.747" gradientUnits="userSpaceOnUse">
<stop/>
<stop offset="1" stop-color="white"/>
</linearGradient>
<linearGradient id="paint5_linear_1_2" x1="107.405" y1="381.551" x2="36.0034" y2="199.747" gradientUnits="userSpaceOnUse">
<stop stop-color="#97C3F9"/>
<stop offset="1" stop-color="#93C1F9"/>
</linearGradient>
<linearGradient id="paint6_linear_1_2" x1="133.609" y1="371.259" x2="62.2077" y2="189.456" gradientUnits="userSpaceOnUse">
<stop/>
<stop offset="1" stop-color="white"/>
</linearGradient>
<linearGradient id="paint7_linear_1_2" x1="133.609" y1="371.259" x2="62.2077" y2="189.456" gradientUnits="userSpaceOnUse">
<stop stop-color="#97C3F9"/>
<stop offset="1" stop-color="#93C1F9"/>
</linearGradient>
<linearGradient id="paint8_linear_1_2" x1="159.813" y1="360.968" x2="88.412" y2="179.164" gradientUnits="userSpaceOnUse">
<stop/>
<stop offset="1" stop-color="white"/>
</linearGradient>
<linearGradient id="paint9_linear_1_2" x1="159.813" y1="360.968" x2="88.412" y2="179.164" gradientUnits="userSpaceOnUse">
<stop stop-color="#97C3F9"/>
<stop offset="1" stop-color="#93C1F9"/>
</linearGradient>
<linearGradient id="paint10_linear_1_2" x1="46.0538" y1="405.645" x2="-25.3468" y2="223.843" gradientUnits="userSpaceOnUse">
<stop/>
<stop offset="1" stop-color="white"/>
</linearGradient>
<linearGradient id="paint11_linear_1_2" x1="46.0538" y1="405.645" x2="-25.3468" y2="223.843" gradientUnits="userSpaceOnUse">
<stop stop-color="#97C3F9"/>
<stop offset="1" stop-color="#93C1F9"/>
</linearGradient>
<linearGradient id="paint12_linear_1_2" x1="72.2581" y1="395.354" x2="0.857515" y2="213.551" gradientUnits="userSpaceOnUse">
<stop/>
<stop offset="1" stop-color="white"/>
</linearGradient>
<linearGradient id="paint13_linear_1_2" x1="72.2581" y1="395.354" x2="0.857515" y2="213.551" gradientUnits="userSpaceOnUse">
<stop stop-color="#97C3F9"/>
<stop offset="1" stop-color="#93C1F9"/>
</linearGradient>
<linearGradient id="paint14_linear_1_2" x1="98.4624" y1="385.062" x2="27.0619" y2="203.26" gradientUnits="userSpaceOnUse">
<stop/>
<stop offset="1" stop-color="white"/>
</linearGradient>
<linearGradient id="paint15_linear_1_2" x1="98.4624" y1="385.062" x2="27.0619" y2="203.26" gradientUnits="userSpaceOnUse">
<stop stop-color="#97C3F9"/>
<stop offset="1" stop-color="#93C1F9"/>
</linearGradient>
<linearGradient id="paint16_linear_1_2" x1="124.667" y1="374.771" x2="53.2661" y2="192.968" gradientUnits="userSpaceOnUse">
<stop/>
<stop offset="1" stop-color="white"/>
</linearGradient>
<linearGradient id="paint17_linear_1_2" x1="124.667" y1="374.771" x2="53.2661" y2="192.968" gradientUnits="userSpaceOnUse">
<stop stop-color="#97C3F9"/>
<stop offset="1" stop-color="#93C1F9"/>
</linearGradient>
<linearGradient id="paint18_linear_1_2" x1="150.871" y1="364.479" x2="79.4704" y2="182.677" gradientUnits="userSpaceOnUse">
<stop/>
<stop offset="1" stop-color="white"/>
</linearGradient>
<linearGradient id="paint19_linear_1_2" x1="150.871" y1="364.479" x2="79.4704" y2="182.677" gradientUnits="userSpaceOnUse">
<stop stop-color="#97C3F9"/>
<stop offset="1" stop-color="#93C1F9"/>
</linearGradient>
<linearGradient id="paint20_linear_1_2" x1="37.1113" y1="409.158" x2="-34.2905" y2="227.354" gradientUnits="userSpaceOnUse">
<stop/>
<stop offset="1" stop-color="white"/>
</linearGradient>
<linearGradient id="paint21_linear_1_2" x1="37.1113" y1="409.158" x2="-34.2905" y2="227.354" gradientUnits="userSpaceOnUse">
<stop stop-color="#97C3F9"/>
<stop offset="1" stop-color="#93C1F9"/>
</linearGradient>
<linearGradient id="paint22_linear_1_2" x1="63.3157" y1="398.866" x2="-8.08611" y2="217.063" gradientUnits="userSpaceOnUse">
<stop/>
<stop offset="1" stop-color="white"/>
</linearGradient>
<linearGradient id="paint23_linear_1_2" x1="63.3157" y1="398.866" x2="-8.08611" y2="217.063" gradientUnits="userSpaceOnUse">
<stop stop-color="#97C3F9"/>
<stop offset="1" stop-color="#93C1F9"/>
</linearGradient>
<linearGradient id="paint24_linear_1_2" x1="89.5201" y1="388.575" x2="18.1183" y2="206.771" gradientUnits="userSpaceOnUse">
<stop/>
<stop offset="1" stop-color="white"/>
</linearGradient>
<linearGradient id="paint25_linear_1_2" x1="89.5201" y1="388.575" x2="18.1183" y2="206.771" gradientUnits="userSpaceOnUse">
<stop stop-color="#97C3F9"/>
<stop offset="1" stop-color="#93C1F9"/>
</linearGradient>
<linearGradient id="paint26_linear_1_2" x1="115.724" y1="378.283" x2="44.3225" y2="196.48" gradientUnits="userSpaceOnUse">
<stop/>
<stop offset="1" stop-color="white"/>
</linearGradient>
<linearGradient id="paint27_linear_1_2" x1="115.724" y1="378.283" x2="44.3225" y2="196.48" gradientUnits="userSpaceOnUse">
<stop stop-color="#97C3F9"/>
<stop offset="1" stop-color="#93C1F9"/>
</linearGradient>
<linearGradient id="paint28_linear_1_2" x1="141.929" y1="367.992" x2="70.5268" y2="186.188" gradientUnits="userSpaceOnUse">
<stop/>
<stop offset="1" stop-color="white"/>
</linearGradient>
<linearGradient id="paint29_linear_1_2" x1="141.929" y1="367.992" x2="70.5268" y2="186.188" gradientUnits="userSpaceOnUse">
<stop stop-color="#97C3F9"/>
<stop offset="1" stop-color="#93C1F9"/>
</linearGradient>
<linearGradient id="paint30_linear_1_2" x1="28.169" y1="412.67" x2="-43.2326" y2="230.866" gradientUnits="userSpaceOnUse">
<stop/>
<stop offset="1" stop-color="white"/>
</linearGradient>
<linearGradient id="paint31_linear_1_2" x1="28.169" y1="412.67" x2="-43.2326" y2="230.866" gradientUnits="userSpaceOnUse">
<stop stop-color="#97C3F9"/>
<stop offset="1" stop-color="#93C1F9"/>
</linearGradient>
<linearGradient id="paint32_linear_1_2" x1="54.3734" y1="402.378" x2="-17.0281" y2="220.575" gradientUnits="userSpaceOnUse">
<stop/>
<stop offset="1" stop-color="white"/>
</linearGradient>
<linearGradient id="paint33_linear_1_2" x1="54.3734" y1="402.378" x2="-17.0281" y2="220.575" gradientUnits="userSpaceOnUse">
<stop stop-color="#97C3F9"/>
<stop offset="1" stop-color="#93C1F9"/>
</linearGradient>
<linearGradient id="paint34_linear_1_2" x1="80.5777" y1="392.087" x2="9.17623" y2="210.283" gradientUnits="userSpaceOnUse">
<stop/>
<stop offset="1" stop-color="white"/>
</linearGradient>
<linearGradient id="paint35_linear_1_2" x1="80.5777" y1="392.087" x2="9.17623" y2="210.283" gradientUnits="userSpaceOnUse">
<stop stop-color="#97C3F9"/>
<stop offset="1" stop-color="#93C1F9"/>
</linearGradient>
<linearGradient id="paint36_linear_1_2" x1="106.782" y1="381.795" x2="35.3806" y2="199.992" gradientUnits="userSpaceOnUse">
<stop/>
<stop offset="1" stop-color="white"/>
</linearGradient>
<linearGradient id="paint37_linear_1_2" x1="106.782" y1="381.795" x2="35.3806" y2="199.992" gradientUnits="userSpaceOnUse">
<stop stop-color="#97C3F9"/>
<stop offset="1" stop-color="#93C1F9"/>
</linearGradient>
<linearGradient id="paint38_linear_1_2" x1="132.986" y1="371.504" x2="61.5848" y2="189.7" gradientUnits="userSpaceOnUse">
<stop/>
<stop offset="1" stop-color="white"/>
</linearGradient>
<linearGradient id="paint39_linear_1_2" x1="132.986" y1="371.504" x2="61.5848" y2="189.7" gradientUnits="userSpaceOnUse">
<stop stop-color="#97C3F9"/>
<stop offset="1" stop-color="#93C1F9"/>
</linearGradient>
<linearGradient id="paint40_linear_1_2" x1="19.2266" y1="416.182" x2="-52.175" y2="234.378" gradientUnits="userSpaceOnUse">
<stop/>
<stop offset="1" stop-color="white"/>
</linearGradient>
<linearGradient id="paint41_linear_1_2" x1="19.2266" y1="416.182" x2="-52.175" y2="234.378" gradientUnits="userSpaceOnUse">
<stop stop-color="#97C3F9"/>
<stop offset="1" stop-color="#93C1F9"/>
</linearGradient>
<linearGradient id="paint42_linear_1_2" x1="45.431" y1="405.89" x2="-25.9704" y2="224.087" gradientUnits="userSpaceOnUse">
<stop/>
<stop offset="1" stop-color="white"/>
</linearGradient>
<linearGradient id="paint43_linear_1_2" x1="45.431" y1="405.89" x2="-25.9704" y2="224.087" gradientUnits="userSpaceOnUse">
<stop stop-color="#97C3F9"/>
<stop offset="1" stop-color="#93C1F9"/>
</linearGradient>
<linearGradient id="paint44_linear_1_2" x1="71.6353" y1="395.599" x2="0.233893" y2="213.795" gradientUnits="userSpaceOnUse">
<stop/>
<stop offset="1" stop-color="white"/>
</linearGradient>
<linearGradient id="paint45_linear_1_2" x1="71.6353" y1="395.599" x2="0.233893" y2="213.795" gradientUnits="userSpaceOnUse">
<stop stop-color="#97C3F9"/>
<stop offset="1" stop-color="#93C1F9"/>
</linearGradient>
<linearGradient id="paint46_linear_1_2" x1="97.8397" y1="385.307" x2="26.4382" y2="203.504" gradientUnits="userSpaceOnUse">
<stop/>
<stop offset="1" stop-color="white"/>
</linearGradient>
<linearGradient id="paint47_linear_1_2" x1="97.8397" y1="385.307" x2="26.4382" y2="203.504" gradientUnits="userSpaceOnUse">
<stop stop-color="#97C3F9"/>
<stop offset="1" stop-color="#93C1F9"/>
</linearGradient>
<linearGradient id="paint48_linear_1_2" x1="124.044" y1="375.016" x2="52.6425" y2="193.212" gradientUnits="userSpaceOnUse">
<stop/>
<stop offset="1" stop-color="white"/>
</linearGradient>
<linearGradient id="paint49_linear_1_2" x1="124.044" y1="375.016" x2="52.6425" y2="193.212" gradientUnits="userSpaceOnUse">
<stop stop-color="#97C3F9"/>
<stop offset="1" stop-color="#93C1F9"/>
</linearGradient>
<linearGradient id="paint50_linear_1_2" x1="1052.82" y1="34.8468" x2="966.548" y2="459.132" gradientUnits="userSpaceOnUse">
<stop stop-color="#67C3F3"/>
<stop offset="1" stop-color="#5A98F2"/>
</linearGradient>
<clipPath id="clip0_1_2">
<rect width="1172" height="425" fill="white"/>
</clipPath>
</defs>
</svg>
